PathFileType	4	(X/Y/Z)	1H_nor_med_left.trc
DataRate	CameraRate	NumFrames	NumMarkers	Units	OrigDataRate	OrigDataStartFrame	OrigNumFrames
250.00	250.00	21	18	mm	250.00	3821	7640
Frame#	Time	c7	r_should	l_should	clavicle	r_upa	r_elb_l	r_elb_m	r_low	r_wri_l	r_wri_m	r_met	l_upa	l_elb_l	l_elb_m	l_low	l_wri_l	l_wri_m	l_met
	X1	Y1	Z1	X2	Y2	Z2	X3	Y3	Z3	X4	Y4	Z4	X5	Y5	Z5	X6	Y6	Z6	X7	Y7	Z7	X8	Y8	Z8	X9	Y9	Z9	X10	Y10	Z10	X11	Y11	Z11	X12	Y12	Z12	X13	Y13	Z13	X14	Y14	Z14	X15	Y15	Z15	X16	Y16	Z16	X17	Y17	Z17	X18	Y18	Z18
3821	15.28000	1240.06323	1425.63599	145.18970	1279.12610	1349.17737	311.57977	1267.75403	1365.55994	-26.05225	1341.23975	1279.40161	137.54974	1290.85291	1130.67444	355.65683	1296.23706	1039.68237	370.91251	1226.41772	1012.36523	308.80200	1310.89087	904.81628	363.35309	1322.04395	777.67310	348.45975	1256.86292	781.83960	389.44733	1334.56873	716.31085	395.04977	nan	nan	nan	1295.77881	1078.44250	-138.40543	1223.01025	1055.04224	-85.47328	1345.39697	982.00836	-90.38528	1387.59302	911.69446	-8.10508	1343.71887	860.39355	-49.41380	1442.52991	845.72693	-12.16581
3822	15.28400	1240.01343	1425.63806	145.12456	1279.14685	1349.16406	311.48798	1267.63538	1365.61108	-26.11464	1341.19360	1279.40039	137.42014	1291.54761	1130.81604	355.80438	1296.29639	1039.66565	370.77457	1226.44434	1012.34973	308.70520	1310.94446	904.80505	363.19183	1322.09094	777.66180	348.27899	1256.93018	781.81494	389.29980	1334.64355	716.29468	394.85681	nan	nan	nan	1295.77454	1078.82117	-138.50972	1223.06885	1055.31128	-85.67297	1345.21509	983.61084	-90.12666	1388.42468	916.36841	-8.46537	1344.76038	861.77832	-48.12374	1443.61047	847.90906	-10.64301
3823	15.28800	1239.96069	1425.63965	145.05978	1279.15869	1349.15271	311.39667	1267.51208	1365.66553	-26.17836	1341.14880	1279.39771	137.30127	1293.05054	1131.16370	356.32059	1296.34338	1039.66357	370.65637	1226.45447	1012.34186	308.61148	1310.99011	904.80164	363.04181	1322.13757	777.65790	348.10703	1256.99023	781.78607	389.14975	1334.71509	716.28442	394.67010	nan	nan	nan	1295.77966	1079.19739	-138.61057	1223.12671	1055.58301	-85.88141	1345.85327	987.26117	-91.74178	1388.15552	914.47443	-5.42233	1345.65613	863.16809	-47.16367	1444.66724	850.10333	-9.11324
3824	15.29200	1239.90564	1425.64551	144.98842	1279.16394	1349.14880	311.31021	1267.38855	1365.71973	-26.23401	1341.10303	1279.39722	137.19554	1293.43628	1131.24255	356.36493	1296.37000	1039.65771	370.53595	1226.44983	1012.34021	308.51477	1311.03540	904.79590	362.89951	1322.18433	777.65002	347.94415	1257.05444	781.77271	389.01083	1334.78198	716.27777	394.49298	nan	nan	nan	1295.79333	1079.56030	-138.70479	1223.19189	1055.86926	-86.10305	1348.80627	991.19440	-95.07532	1388.60181	915.44794	-3.92684	1346.37708	864.53174	-46.54621	1445.71643	852.33630	-7.58115
3825	15.29600	1239.84961	1425.64832	144.92204	1279.15625	1349.13855	311.21945	1267.26892	1365.76440	-26.29037	1341.05347	1279.40100	137.08904	1293.54077	1131.24805	356.29288	1296.38525	1039.64246	370.40256	1226.44324	1012.33948	308.41473	1311.07458	904.78729	362.76819	1322.22180	777.65796	347.77463	1257.11560	781.76349	388.87152	1334.85474	716.28064	394.31430	1283.60498	1177.77051	-123.90349	1295.80713	1079.91748	-138.79567	1223.26770	1056.13904	-86.31370	1349.88953	992.94861	-95.59703	1389.21240	917.13068	-2.81421	1347.32410	865.97308	-45.37535	1446.78394	854.59161	-6.03425
3826	15.30000	1239.79211	1425.64978	144.85057	1279.14758	1349.13513	311.12289	1267.14526	1365.81018	-26.35202	1341.00867	1279.40686	136.97510	1293.53027	1131.20947	356.18878	1296.40369	1039.63708	370.29312	1226.44177	1012.33459	308.32486	1311.10986	904.78406	362.65335	1322.26123	777.67340	347.61340	1257.16992	781.75366	388.74216	1334.93433	716.29352	394.14658	1283.64709	1177.85144	-123.98984	1295.82410	1080.29041	-138.89417	1223.35242	1056.39893	-86.50564	1350.50500	994.13483	-95.41950	1389.83545	918.96790	-1.81480	1348.35754	867.38983	-44.06020	1447.83801	856.86255	-4.49270
3827	15.30400	1239.73291	1425.65454	144.77283	1279.14062	1349.13086	311.02103	1267.02112	1365.85657	-26.42403	1340.96301	1279.41406	136.86632	1293.44080	1131.13806	356.07376	1296.41272	1039.63196	370.18268	1226.43164	1012.33795	308.23773	1311.13635	904.78339	362.53040	1322.30505	777.67749	347.46683	1257.22742	781.74908	388.60626	1335.04590	716.34705	394.01254	1283.70044	1177.94543	-124.09937	1295.85535	1080.66479	-138.98972	1223.42517	1056.64575	-86.68862	1351.00537	995.20758	-95.04312	1390.43530	920.84808	-0.83466	1349.39417	868.86975	-42.74133	1448.86084	859.15710	-2.98146
3828	15.30800	1239.66992	1425.66211	144.68739	1279.13110	1349.13086	310.92014	1266.88879	1365.90527	-26.49863	1340.91724	1279.42517	136.74724	1294.53052	1130.50317	355.58911	1296.41772	1039.63660	370.06659	1226.41565	1012.34033	308.14545	1311.15601	904.79315	362.40442	1322.34644	777.68683	347.31390	1257.28748	781.74963	388.47375	1335.22607	716.47522	393.93591	1283.77014	1178.04883	-124.22535	1295.89929	1081.04541	-139.08635	1223.49219	1056.90344	-86.87740	1351.46631	996.26892	-94.58431	1390.84448	922.57251	-0.06197	1350.44482	870.41656	-41.41254	1449.88660	861.46393	-1.47208
3829	15.31200	1239.61023	1425.66479	144.59215	1279.11475	1349.13660	310.81467	1266.74854	1365.95923	-26.56934	1340.87134	1279.44141	136.61989	1297.83008	1128.64038	354.33365	1296.41626	1039.64197	369.95782	1226.39319	1012.35059	308.05850	1311.17505	904.81024	362.26953	1322.38977	777.71198	347.16534	1257.35022	781.75775	388.34570	1335.02795	716.93573	393.79309	1283.84424	1178.15332	-124.34287	1295.96411	1081.42139	-139.19318	1223.57031	1057.16687	-87.07860	nan	nan	nan	1391.21008	924.26031	0.67891	1351.48975	871.95355	-40.09322	1450.92078	863.79279	0.04749
3830	15.31600	1239.54968	1425.67139	144.49396	1279.09680	1349.15015	310.70386	1266.60852	1366.00903	-26.64188	1340.82410	1279.45166	136.50044	nan	nan	nan	1296.40979	1039.64880	369.84293	1226.36694	1012.35724	307.96832	1311.19824	904.83264	362.13623	1322.45312	777.76251	347.01752	1257.40576	781.76935	388.21188	1334.73535	717.27588	393.47760	1283.00977	1177.04199	-123.26514	1296.04614	1081.79565	-139.31442	1223.67285	1057.43359	-87.28683	nan	nan	nan	1392.04211	926.61987	2.13971	1352.53101	873.46191	-38.78932	1451.92957	866.15704	1.55947
3831	15.32000	1239.49121	1425.67993	144.40321	1279.08032	1349.16187	310.59933	1266.47583	1366.05652	-26.71139	1340.78162	1279.46460	136.38309	nan	nan	nan	1296.41455	1039.66138	369.72961	1226.35193	1012.36310	307.88132	1311.21252	904.84894	361.99506	1322.64233	777.93048	346.94766	1257.45837	781.78149	388.08823	1335.64966	716.53381	393.27603	1281.93323	1175.61169	-121.86837	1296.12634	1082.17542	-139.44209	1223.78357	1057.71021	-87.51584	nan	nan	nan	1392.73462	928.81213	3.32305	1353.55359	875.00208	-37.47593	1452.90894	868.52490	3.05226
3832	15.32400	1239.42542	1425.68384	144.30899	1279.06494	1349.17065	310.50278	1266.34937	1366.10168	-26.77348	1340.73438	1279.47144	136.26164	nan	nan	nan	1296.40771	1039.66528	369.61261	1226.32910	1012.37238	307.80167	1311.22888	904.86542	361.85010	1323.07458	778.27106	347.02267	1257.51001	781.79065	387.96198	1335.94055	716.36157	393.09875	1283.57288	1177.75659	-124.03056	1296.22009	1082.55334	-139.57764	1223.90601	1057.98315	-87.75568	nan	nan	nan	1393.57898	931.28882	4.67279	1354.57947	876.58331	-36.15459	1453.90076	870.88672	4.53027
3833	15.32800	1239.35498	1425.68420	144.21368	1279.04761	1349.17896	310.39948	1266.22400	1366.14587	-26.84149	1340.68140	1279.47168	136.14101	nan	nan	nan	1296.40820	1039.68591	369.49457	1226.31165	1012.38123	307.71997	1311.24475	904.88477	361.70792	1323.16064	778.19598	346.82870	1257.56409	781.80243	387.83807	1336.07703	716.32922	392.92984	1283.14026	1177.15259	-123.44949	1296.31641	1082.92346	-139.69212	1224.03943	1058.24561	-87.98777	nan	nan	nan	1394.50330	934.04742	6.30379	1355.62097	878.15521	-34.83227	1454.89465	873.27264	6.02071
3834	15.33200	1239.28442	1425.68640	144.11942	1279.02686	1349.18689	310.29468	1266.10840	1366.18994	-26.90829	1340.61536	1279.46802	136.02214	nan	nan	nan	1296.40332	1039.69116	369.38541	1226.29736	1012.39825	307.63965	1311.26233	904.90198	361.57532	1322.45312	777.35162	346.09717	1257.61853	781.81171	387.71249	1336.16602	716.33862	392.76941	1281.26782	1174.65234	-120.97231	1296.41675	1083.28784	-139.78571	1224.17529	1058.50574	-88.20126	1351.45349	995.30713	-84.73546	1395.20129	936.33838	7.39996	1356.63513	879.74408	-33.53694	1455.87183	875.70367	7.51053
3835	15.33600	1239.21375	1425.68225	144.03677	1279.00317	1349.19531	310.19861	1266.00049	1366.22803	-26.97553	1340.54590	1279.45972	135.90797	nan	nan	nan	1296.39172	1039.70471	369.28955	1226.27734	1012.42041	307.56195	1311.27161	904.91528	361.43689	1322.27930	777.13702	345.79147	1257.68420	781.82428	387.60132	1336.24268	716.35339	392.60678	1280.87476	1174.09607	-120.43900	1296.86816	1083.31641	-139.55513	1224.30090	1058.77124	-88.39557	1351.81641	996.61182	-83.98550	1395.85022	938.48334	8.37077	1357.63806	881.33521	-32.21549	1456.82300	878.14374	8.98006
3836	15.34000	1239.14404	1425.67664	143.95436	1278.97388	1349.20691	310.10645	1265.89832	1366.26953	-27.04622	1340.47766	1279.46277	135.80533	1290.95715	1130.69153	354.11517	1296.38733	1039.72070	369.20697	1226.27197	1012.42816	307.47409	1311.28186	904.92963	361.31268	1322.23828	777.08624	345.59943	1257.74622	781.83655	387.49249	1336.31897	716.36877	392.44073	1280.85547	1174.03259	-120.39137	1297.41699	1083.27454	-139.25143	1224.42102	1059.04480	-88.60014	1352.31104	997.61487	-83.61239	1396.33240	940.29529	9.00522	1358.61755	882.99420	-30.92973	1457.75513	880.57928	10.43732
3837	15.34400	1239.07605	1425.67749	143.86508	1278.94092	1349.22644	310.00925	1265.80408	1366.31653	-27.11481	1340.42310	1279.46826	135.70500	1290.94019	1130.70410	354.04117	1296.38562	1039.73938	369.12399	1226.27588	1012.42902	307.38614	1311.30090	904.95624	361.20837	1322.24609	777.08545	345.44092	1257.80554	781.85010	387.38708	1336.39429	716.39001	392.27725	1280.93359	1174.09619	-120.46661	1297.31262	1083.88733	-139.55914	1224.56189	1059.32007	-88.81691	1352.88599	998.47009	-83.49216	1396.76538	942.07227	9.56071	1359.61023	884.67505	-29.63172	1458.69775	883.05249	11.89873
3838	15.34800	1239.00537	1425.68091	143.77353	1278.90198	1349.25110	309.91348	1265.71497	1366.36267	-27.18356	1340.37817	1279.47900	135.61139	1290.93665	1130.71960	353.96689	1296.38208	1039.77075	369.03833	1226.26855	1012.44128	307.29993	1311.32910	904.98969	361.09851	1322.28760	777.10840	345.30896	1257.86035	781.85785	387.27826	1336.47192	716.41370	392.11749	1281.03674	1174.19714	-120.56403	1298.08411	1083.66113	-139.07452	1224.71143	1059.58411	-89.00124	1353.38782	999.50409	-83.13516	1397.45691	944.41376	10.66221	1360.61768	886.33716	-28.32224	1459.64795	885.56262	13.37073
3839	15.35200	1238.93579	1425.68542	143.67944	1278.86475	1349.27698	309.82031	1265.62402	1366.41211	-27.25471	1340.33435	1279.49756	135.52031	1290.17102	1131.12109	353.47552	1296.37231	1039.79419	368.94598	1226.26318	1012.46118	307.21225	1311.35376	905.02985	360.98184	1322.33276	777.13293	345.16611	1257.91809	781.87610	387.16895	1336.54431	716.44470	391.96103	1281.14673	1174.30762	-120.67212	1298.03162	1084.22717	-139.34634	1224.86914	1059.83618	-89.17440	1353.87134	1000.57483	-82.70274	1397.96362	946.32690	11.31887	1361.60669	887.99323	-27.01257	1460.58472	888.07806	14.83883
3840	15.35600	1238.86804	1425.68848	143.58049	1278.81750	1349.29822	309.72064	1265.53540	1366.45752	-27.32855	1340.29187	1279.51819	135.43199	1289.20129	1131.61389	352.87018	1296.36157	1039.81738	368.86526	1226.25586	1012.47894	307.13013	1311.37488	905.07056	360.87549	1322.35596	777.16040	345.01578	1257.97693	781.88379	387.04794	1336.61060	716.46960	391.80130	1282.19641	1175.64880	-122.01028	1297.42407	1085.31763	-140.12096	1225.02539	1060.08008	-89.34309	1354.35779	1001.68524	-82.27966	1398.77185	949.05664	12.70068	1362.60413	889.70673	-25.74905	1461.50354	890.60339	16.28750
3841	15.36000	1238.80029	1425.68909	143.47758	1278.76941	1349.32043	309.61893	1265.46033	1366.49744	-27.39812	1340.25049	1279.53259	135.34222	1290.45007	1131.00342	353.48343	1296.35010	1039.84692	368.77930	1226.25403	1012.49194	307.04468	1311.39600	905.10291	360.77374	1322.38013	777.20526	344.86993	1258.02869	781.88684	386.92899	1336.67590	716.49457	391.64493	1283.48621	1177.30042	-123.65806	1297.36365	1085.86890	-140.38992	1225.17163	1060.31592	-89.49695	1354.82556	1002.79871	-81.86825	1399.30969	951.17548	13.40612	1363.59766	891.46210	-24.50653	1462.39343	893.15308	17.71269
